<svg xmlns="http://www.w3.org/2000/svg" viewBox="0 0 230 230"><defs><style>.cls-1{fill:none;}.cls-2{fill:#8e8e8e;}</style></defs><title>Asset 2</title><g id="Layer_2" data-name="Layer 2"><g id="OBJECTS"><rect class="cls-1" width="230" height="230"/><path class="cls-2" d="M199.92,125.72h-13v-70c0-12.83-2.85-23.48-8.47-31.66A33.63,33.63,0,0,0,157.31,9.75c-18.67-3.87-37.85,7.64-46.65,28a4.94,4.94,0,0,0-.36,1.48h-12a31,31,0,0,0-31,31,5,5,0,0,0,5,5h76.27a5,5,0,0,0,5-5,31,31,0,0,0-31-31H121c6.39-12.39,19.65-22.71,34.27-19.68,13.54,2.8,21.63,16.33,21.63,36.18v70h-153a5,5,0,0,0-5,5v5.06a60,60,0,0,0,36.9,55.33l-16.68,24.1a5,5,0,0,0,8.22,5.69l18-26a4.93,4.93,0,0,0,.36-.65,59.86,59.86,0,0,0,13.14,1.47H145a60,60,0,0,0,10.74-1c0,.05.05.11.09.16l18,26a5,5,0,1,0,8.22-5.69l-16.11-23.27a60,60,0,0,0,39-56.16v-5.06A5,5,0,0,0,199.92,125.72Zm-57-60.5H77.89a21,21,0,0,1,20.4-16h24.27A21,21,0,0,1,143,65.22Zm52,70.56A50,50,0,0,1,145,185.72H78.86a50,50,0,0,1-49.94-49.94v-.06h166Z"/></g></g></svg>