<svg xmlns="http://www.w3.org/2000/svg" viewBox="0 0 230 230"><defs><style>.cls-1{fill:none;}.cls-2{fill:#8e8e8e;}</style></defs><title>Asset 1</title><g id="Layer_2" data-name="Layer 2"><g id="OBJECTS"><rect class="cls-1" width="230" height="230"/><path class="cls-2" d="M220.72,144.36l-31-80.43c0-.12-.11-.23-.17-.35V42.86c0-15-11.23-27.14-25-27.14H66.58c-13.81,0-25,12.17-25,27.14V66L10.42,144.28A5,5,0,0,0,9,147.72v43a5,5,0,0,0,5,5H25v19a5,5,0,0,0,10,0v-19H199v19a5,5,0,0,0,10,0v-19h8a5,5,0,0,0,5-5v-43A5,5,0,0,0,220.72,144.36Zm-11.35-1.63H21.81l28-70.5H182.19ZM66.58,25.72H164.5c8.29,0,15,7.69,15,17.14V60.72h-128V42.86C51.54,33.41,58.29,25.72,66.58,25.72ZM19,185.72v-32H212v32Z"/></g></g></svg>