<svg xmlns="http://www.w3.org/2000/svg" viewBox="0 0 230 230"><defs><style>.cls-1{fill:none;}.cls-2{fill:#8e8e8e;}</style></defs><title>Asset 3</title><g id="Layer_2" data-name="Layer 2"><g id="OBJECTS"><rect class="cls-1" width="230" height="230"/><path class="cls-2" d="M217.63,106.72H205.22V70.61a54,54,0,0,0-53.89-53.89H84.92A54,54,0,0,0,31,70.61v36.11H18.63a5,5,0,0,0-5,5v69a5,5,0,0,0,5,5h9.67v18.49A17.53,17.53,0,0,0,45.8,221.72H57.45A17.53,17.53,0,0,0,75,204.21V185.72h82v18.49a17.53,17.53,0,0,0,17.51,17.51h11.65a17.53,17.53,0,0,0,17.51-17.51V185.72h14a5,5,0,0,0,5-5v-69A5,5,0,0,0,217.63,106.72ZM41,70.61A43.94,43.94,0,0,1,84.92,26.72h66.42a43.94,43.94,0,0,1,43.89,43.89v33.88H41ZM65,204.21a7.52,7.52,0,0,1-7.51,7.51H45.8a7.52,7.52,0,0,1-7.51-7.51V187.72H65Zm128.67,0a7.52,7.52,0,0,1-7.51,7.51H174.47a7.52,7.52,0,0,1-7.51-7.51V187.72h26.67Zm19-28.49h-189v-59h189ZM179,161.05a17,17,0,1,0-17-17A17,17,0,0,0,179,161.05Zm0-24a7,7,0,1,1-7,7A7,7,0,0,1,179,137.05Zm-123.83,24a17,17,0,1,0-17-17A17,17,0,0,0,55.21,161.05Zm0-24a7,7,0,1,1-7,7A7,7,0,0,1,55.21,137.05Zm32,10.67h61.49a5,5,0,0,0,0-10H87.2a5,5,0,0,0,0,10Z"/></g></g></svg>